<svg version="1.1" xmlns="http://www.w3.org/2000/svg" xmlns:xlink="http://www.w3.org/1999/xlink" width="419.001" height="279.99952" viewBox="558.00133,213.59964,419.001,279.99952"><defs><clipPath id="clip-1"><rect x="399.52267" y="108.79457" transform="scale(1.39667,1.96333)" width="300" height="142.6146" id="clip-1" fill="none"/></clipPath></defs><g fill="none" fill-rule="nonzero" stroke="none" stroke-width="1" stroke-linecap="butt" stroke-linejoin="miter" stroke-miterlimit="10" stroke-dasharray="" stroke-dashoffset="0" font-family="none" font-weight="none" font-size="none" text-anchor="none" style="mix-blend-mode: normal"><g><g clip-path="url(#clip-1)" id="Group 1"><g id="Group 1"><path d="M558,213.60001c138.27,0 276.54,0 419,0c0,92.4 0,184.80001 0,280c-138.27,0 -276.54,0 -419,0c0,-92.4 0,-184.80001 0,-280z" id="Path 1" fill="#fefefe"/><path d="M558,213.60001c138.27,0 276.54,0 419,0c0,11.55 0,23.09999 0,35.00001c-138.27,0 -276.54,0 -419,0c0,-11.55 0,-23.09999 0,-35.00001z" id="Path 1" fill="#6495eb"/><path d="M929.33786,223.60001c13.38097,0 26.76194,0 40.54839,0c0,4.62 0,9.24 0,14c-13.38097,0 -26.76194,0 -40.54839,0c0,-4.62 0,-9.24 0,-14z" id="Path 1" fill="#46a24b"/><path d="M723.03904,360.60001c3.3049,-0.02682 6.60985,-0.04632 9.9148,-0.06249c1.84043,-0.0116 3.68087,-0.02321 5.57707,-0.03516c4.42665,0.09766 4.42665,0.09766 5.13802,1.09766c0.07024,1.99801 0.09228,3.99957 0.08893,6.00001c0.00275,1.6397 0.00275,1.6397 0.00556,3.3125c-0.09448,2.68751 -0.09448,2.68751 -0.80585,3.68749c-3.33419,0.07357 -6.66914,0.08352 -10.00371,0.06249c-2.7634,-0.01355 -2.7634,-0.01355 -5.58263,-0.02735c-1.42961,-0.0116 -2.85923,-0.02321 -4.33217,-0.03516c0,-4.62 0,-9.24 0,-14z" id="Path 1" fill="#dbdbdb"/><path d="M800.57895,360.60001c5.6341,0 11.26818,0 17.07301,0c0,4.62 0,9.24 0,14c-5.6341,0 -11.26818,0 -17.07301,0c0,-4.62 0,-9.24 0,-14z" id="Path 1" fill="#dbdbdb"/></g></g></g></g></svg>